<svg width="148" height="28" viewBox="0 0 148 28" fill="none" xmlns="http://www.w3.org/2000/svg">
<g clip-path="url(#clip0_196_52)">
<path fill-rule="evenodd" clip-rule="evenodd" d="M12.5243 0.518775C10.8164 0.685242 9.43645 1.02947 8.09226 1.62437C7.10359 2.06188 5.91875 2.74922 5.63794 3.04812C5.35856 3.34549 5.54213 3.83176 5.95821 3.89671C6.11687 3.92145 6.21406 3.87729 6.72043 3.55032C7.40043 3.11117 8.45527 2.58196 9.20028 2.30607C9.73255 2.10894 11.0449 1.75454 11.2425 1.75454C11.3473 1.75454 11.3475 1.75728 11.2527 1.89963C10.3981 3.18219 9.79787 4.76883 9.30919 7.03694L9.2226 7.43879L8.86956 7.5259C8.09754 7.71637 7.51245 8.26848 7.25539 9.04901C7.227 9.13527 7.05505 9.14134 4.63793 9.14134C3.21507 9.14134 2.05091 9.1262 2.05091 9.10762C2.05091 9.01323 2.66196 7.84068 2.92693 7.42655C3.30519 6.8355 3.33104 6.63035 3.05789 6.38633C2.90657 6.25109 2.84958 6.23157 2.67452 6.25505C2.40321 6.29146 2.36248 6.33082 2.0164 6.89026C-0.768104 11.3917 -0.660942 17.1322 2.28966 21.5305L2.51412 21.8651L2.35894 22.1659C2.14478 22.5811 2.06537 23.0778 2.14177 23.5238C2.39672 25.0121 3.9986 25.8238 5.32791 25.1382L5.62649 24.9842L6.09434 25.2874C8.23915 26.6774 10.4967 27.3912 13.0474 27.4861C17.7553 27.6612 22.1958 25.3487 24.8259 21.3522C26.3189 19.0836 27.0932 16.2903 26.991 13.5425C26.8962 10.9917 26.1823 8.73422 24.7923 6.58941L24.4891 6.12156L24.6431 5.82298C24.8562 5.40984 24.9354 4.91255 24.8591 4.46723C24.604 2.97768 23.0023 2.1673 21.6708 2.85401L21.37 3.00918L21.0354 2.78473C19.3563 1.6583 17.4693 0.933914 15.3999 0.621241C14.8744 0.541833 12.9802 0.474349 12.5243 0.518775ZM13.9623 1.67354C15.12 2.21252 16.2774 4.82956 16.8217 8.13885C16.8813 8.50159 16.9431 8.87578 16.959 8.97034L16.9878 9.14229L14.2627 9.12862L11.5376 9.11496L11.4412 8.86101C11.2617 8.38789 10.9285 8.03137 10.2873 7.62641C10.2562 7.60684 10.4224 6.84046 10.6339 6.02833C11.3295 3.35568 12.4874 1.54454 13.5005 1.54454C13.602 1.54454 13.8099 1.60258 13.9623 1.67354ZM16.5691 1.93261C16.9562 2.03054 17.5104 2.19859 17.8006 2.30607C19.004 2.7517 20.7245 3.71742 20.651 3.90599C20.5231 4.23407 20.4549 4.66219 20.4809 4.97312C20.6094 6.50905 22.1192 7.41837 23.5894 6.84526C23.6602 6.81761 23.7456 6.91095 23.9842 7.27659C24.2724 7.71817 24.95 8.9935 24.95 9.09438C24.95 9.12134 23.4813 9.14134 21.5042 9.14134H18.0583L17.914 8.25756C17.4938 5.68363 16.7967 3.53555 15.9577 2.2294C15.8365 2.04077 15.7194 1.85679 15.6975 1.82049C15.6347 1.71681 15.8003 1.73813 16.5691 1.93261ZM23.2152 3.80142C24.0757 4.25096 24.0255 5.46767 23.1297 5.87685C22.3619 6.22756 21.4504 5.56206 21.5322 4.71052C21.5878 4.1315 22.1071 3.654 22.6812 3.654C22.8543 3.654 23.0212 3.70006 23.2152 3.80142ZM3.86595 4.57207C3.66857 4.76946 3.63923 4.93951 3.76175 5.17647C3.94336 5.52761 4.48502 5.52761 4.66663 5.17647C4.80666 4.90564 4.72135 4.59766 4.47035 4.46787C4.2334 4.34535 4.06334 4.37469 3.86595 4.57207ZM9.89628 8.64183C10.4481 8.91683 10.6942 9.57621 10.447 10.1175C10.0358 11.0176 8.82287 11.0633 8.36695 10.1958C8.23884 9.95199 8.21815 9.85923 8.23578 9.60708C8.29461 8.76546 9.14836 8.26917 9.89628 8.64183ZM7.25539 10.2889C7.44618 10.8683 7.89044 11.3968 8.39275 11.6422L8.69323 11.789L8.66305 13.2484C8.63604 14.5536 8.67366 15.8002 8.78631 17.3328L8.82023 17.7945H5.22861H1.63699L1.58148 17.623C1.46609 17.2665 1.26168 16.3439 1.17188 15.7742C1.10218 15.3317 1.07907 14.877 1.08013 13.9691C1.08187 12.5275 1.18444 11.7756 1.55705 10.4736L1.6363 10.1966H4.43062C7.04518 10.1966 7.22695 10.2026 7.25539 10.2889ZM17.113 10.2626C17.2222 10.5993 17.3322 13.9934 17.2752 15.269L17.2359 16.1467L17.0617 16.175C16.7422 16.2269 16.303 16.4858 16.0053 16.798C15.7423 17.0736 15.4545 17.5587 15.4532 17.7285C15.4524 17.8251 9.91918 17.8251 9.88789 17.7285C9.77877 17.3922 9.66871 13.998 9.72564 12.7247L9.76474 11.8495L10.0223 11.7835C10.3475 11.7002 10.8433 11.3821 11.065 11.1145C11.2184 10.9295 11.4339 10.5335 11.5145 10.2889C11.543 10.2026 11.7237 10.1966 14.3183 10.1966C16.4904 10.1966 17.0963 10.2109 17.113 10.2626ZM25.4194 10.3681C25.5355 10.7267 25.7394 11.6483 25.8283 12.2168C25.9593 13.053 25.9596 14.9022 25.8291 15.7367C25.732 16.3575 25.5881 17.0247 25.445 17.5174L25.3646 17.7945H22.5573H19.75L19.5988 17.4476C19.4073 17.0078 19.03 16.5934 18.6241 16.3771L18.3075 16.2084L18.3378 14.7458C18.3649 13.4373 18.3274 12.1921 18.2146 10.6583L18.1807 10.1966H21.7723H25.3639L25.4194 10.3681ZM18.0942 17.3064C18.2817 17.4014 18.4351 17.5304 18.539 17.6803C18.6823 17.887 18.6976 17.9489 18.6976 18.3221C18.6976 18.6953 18.6823 18.7572 18.539 18.9639C18.3535 19.2314 17.9075 19.483 17.6197 19.4825C16.9527 19.4815 16.4345 18.9742 16.4345 18.3221C16.4345 17.4484 17.3135 16.9105 18.0942 17.3064ZM9.08689 19.7335C9.51544 22.3585 10.2154 24.4896 11.093 25.8408C11.2916 26.1465 11.3173 26.2128 11.2423 26.2253C11.0998 26.2492 9.78273 25.9007 9.20028 25.685C7.99687 25.2394 6.27643 24.2736 6.34993 24.0851C6.47782 23.757 6.54605 23.3289 6.52003 23.0179C6.3915 21.482 4.88169 20.5727 3.41156 21.1458C3.34075 21.1734 3.25533 21.0801 3.01668 20.7145C2.72849 20.2729 2.05091 18.9976 2.05091 18.8967C2.05091 18.8697 3.51957 18.8497 5.49675 18.8497H8.94259L9.08689 19.7335ZM15.4532 18.9157C15.4535 18.952 15.512 19.1068 15.5832 19.2598C15.7432 19.6034 16.1687 20.0614 16.483 20.2281C16.6128 20.2969 16.719 20.3805 16.719 20.4137C16.719 20.5354 16.3984 21.8816 16.2392 22.4285C15.6458 24.4663 14.7874 25.9333 13.9641 26.3167C13.6125 26.4803 13.3888 26.4805 13.0386 26.3175C11.8796 25.7779 10.7659 23.2611 10.1776 19.8522C10.0899 19.3444 10.0182 18.9111 10.0182 18.8893C10.0181 18.8675 11.2409 18.8497 12.7354 18.8497C14.8738 18.8497 15.4528 18.8637 15.4532 18.9157ZM24.95 18.8842C24.95 18.9547 24.3256 20.1578 24.1046 20.5129C23.1224 22.0916 21.5966 23.6175 20.0178 24.5997C19.4646 24.9439 18.5003 25.4155 17.851 25.6596C17.2754 25.8759 15.969 26.2365 15.7609 26.2365C15.6534 26.2365 15.6532 26.2341 15.7483 26.0914C16.5949 24.8207 17.2211 23.1665 17.6924 20.9552L17.7778 20.5544L18.1058 20.4633C18.8119 20.2669 19.3205 19.8354 19.5988 19.1966L19.75 18.8497H22.35C23.78 18.8497 24.95 18.8652 24.95 18.8842ZM4.85368 22.1629C5.73682 22.6243 5.64876 23.9043 4.70921 24.2631C3.95634 24.5506 3.11408 23.9219 3.17054 23.1144C3.21328 22.5032 3.72328 22.0155 4.31972 22.0155C4.49283 22.0155 4.65967 22.0615 4.85368 22.1629Z" fill="#8E2424"/>
<path d="M47.8098 14.4544C47.8098 15.8522 47.5541 17.0539 47.0427 18.0596C46.5314 19.061 45.8304 19.8323 44.9397 20.3735C44.0534 20.9104 43.0456 21.1789 41.9163 21.1789C40.7828 21.1789 39.7707 20.9104 38.8801 20.3735C37.9937 19.8323 37.2948 19.0588 36.7835 18.0532C36.2721 17.0475 36.0164 15.8479 36.0164 14.4544C36.0164 13.0567 36.2721 11.8571 36.7835 10.8557C37.2948 9.85009 37.9937 9.07878 38.8801 8.54185C39.7707 8.00066 40.7828 7.73006 41.9163 7.73006C43.0456 7.73006 44.0534 8.00066 44.9397 8.54185C45.8304 9.07878 46.5314 9.85009 47.0427 10.8557C47.5541 11.8571 47.8098 13.0567 47.8098 14.4544ZM45.8538 14.4544C45.8538 13.3891 45.6812 12.4921 45.336 11.7634C44.9951 11.0304 44.5264 10.4765 43.9298 10.1015C43.3375 9.72225 42.6663 9.53262 41.9163 9.53262C41.162 9.53262 40.4887 9.72225 39.8964 10.1015C39.3041 10.4765 38.8353 11.0304 38.4902 11.7634C38.1492 12.4921 37.9788 13.3891 37.9788 14.4544C37.9788 15.5198 38.1492 16.4189 38.4902 17.1519C38.8353 17.8806 39.3041 18.4346 39.8964 18.8138C40.4887 19.1888 41.162 19.3763 41.9163 19.3763C42.6663 19.3763 43.3375 19.1888 43.9298 18.8138C44.5264 18.4346 44.9951 17.8806 45.336 17.1519C45.6812 16.4189 45.8538 15.5198 45.8538 14.4544ZM50.1189 24.6817V11.1817H51.9854V12.7733H52.1452C52.256 12.5688 52.4158 12.3323 52.6246 12.0638C52.8334 11.7954 53.1231 11.561 53.4939 11.3607C53.8646 11.1561 54.3547 11.0539 54.9641 11.0539C55.7567 11.0539 56.4641 11.2542 57.0862 11.6547C57.7084 12.0553 58.1963 12.6327 58.55 13.387C58.9079 14.1412 59.0869 15.0489 59.0869 16.11C59.0869 17.1711 58.9101 18.0809 58.5564 18.8394C58.2027 19.5936 57.7169 20.1753 57.099 20.5844C56.4811 20.9892 55.7758 21.1917 54.9832 21.1917C54.3866 21.1917 53.8987 21.0915 53.5195 20.8912C53.1445 20.691 52.8504 20.4566 52.6374 20.1881C52.4243 19.9196 52.2602 19.681 52.1452 19.4722H52.0301V24.6817H50.1189ZM51.9918 16.0908C51.9918 16.7811 52.0919 17.3863 52.2922 17.9061C52.4925 18.426 52.7822 18.833 53.1615 19.127C53.5408 19.4168 54.0052 19.5617 54.555 19.5617C55.126 19.5617 55.6033 19.4104 55.9868 19.1079C56.3703 18.801 56.6601 18.3856 56.8561 17.8614C57.0564 17.3373 57.1565 16.7471 57.1565 16.0908C57.1565 15.4431 57.0585 14.8614 56.8625 14.3458C56.6707 13.8302 56.381 13.4232 55.9932 13.1249C55.6097 12.8266 55.1302 12.6775 54.555 12.6775C54.001 12.6775 53.5322 12.8202 53.1487 13.1057C52.7695 13.3912 52.4818 13.7897 52.2858 14.301C52.0898 14.8124 51.9918 15.409 51.9918 16.0908ZM65.8114 11.1817V12.7158H60.4484V11.1817H65.8114ZM61.8866 8.8295H63.7979V18.1171C63.7979 18.4878 63.8533 18.7669 63.9641 18.9544C64.0749 19.1377 64.2176 19.2634 64.3923 19.3316C64.5713 19.3955 64.7652 19.4275 64.974 19.4275C65.1274 19.4275 65.2616 19.4168 65.3767 19.3955C65.4918 19.3742 65.5812 19.3571 65.6452 19.3444L65.9903 20.9232C65.8795 20.9658 65.7219 21.0084 65.5173 21.051C65.3128 21.0979 65.0571 21.1235 64.7503 21.1277C64.2474 21.1363 63.7787 21.0468 63.344 20.8593C62.9094 20.6718 62.5578 20.382 62.2893 19.99C62.0209 19.5979 61.8866 19.1057 61.8866 18.5134V8.8295ZM67.9255 20.9999V11.1817H69.8367V20.9999H67.9255ZM68.8907 9.66685C68.5583 9.66685 68.2728 9.55606 68.0342 9.33447C67.7998 9.10861 67.6826 8.84015 67.6826 8.52907C67.6826 8.21373 67.7998 7.94526 68.0342 7.72367C68.2728 7.49782 68.5583 7.38489 68.8907 7.38489C69.2231 7.38489 69.5065 7.49782 69.7409 7.72367C69.9795 7.94526 70.0988 8.21373 70.0988 8.52907C70.0988 8.84015 69.9795 9.10861 69.7409 9.33447C69.5065 9.55606 69.2231 9.66685 68.8907 9.66685ZM72.4079 20.9999V11.1817H74.2425V12.7797H74.3639C74.5685 12.2385 74.903 11.8167 75.3675 11.5141C75.832 11.2073 76.3881 11.0539 77.0358 11.0539C77.692 11.0539 78.2418 11.2073 78.6849 11.5141C79.1324 11.8209 79.4626 12.2428 79.6757 12.7797H79.778C80.0124 12.2556 80.3852 11.838 80.8966 11.5269C81.4079 11.2115 82.0173 11.0539 82.7247 11.0539C83.6153 11.0539 84.3419 11.333 84.9044 11.8912C85.4712 12.4495 85.7545 13.2911 85.7545 14.4161V20.9999H83.8433V14.5951C83.8433 13.9303 83.6622 13.4488 83.3 13.1505C82.9378 12.8522 82.5052 12.703 82.0024 12.703C81.3802 12.703 80.8966 12.8948 80.5514 13.2783C80.2062 13.6576 80.0337 14.1455 80.0337 14.7421V20.9999H78.1288V14.4736C78.1288 13.941 77.9626 13.5127 77.6302 13.1888C77.2979 12.865 76.8653 12.703 76.3327 12.703C75.9704 12.703 75.6359 12.7989 75.3291 12.9907C75.0266 13.1782 74.7815 13.4402 74.594 13.7769C74.4108 14.1135 74.3192 14.5035 74.3192 14.9466V20.9999H72.4079ZM94.5356 16.9282V11.1817H96.4532V20.9999H94.574V19.2996H94.4717C94.2458 19.8238 93.8836 20.2606 93.385 20.61C92.8907 20.9552 92.275 21.1277 91.5377 21.1277C90.9071 21.1277 90.3488 20.9892 89.863 20.7123C89.3815 20.431 89.0022 20.0155 88.7252 19.4658C88.4525 18.9161 88.3162 18.2364 88.3162 17.4267V11.1817H90.2274V17.1966C90.2274 17.8657 90.4127 18.3983 90.7835 18.7946C91.1542 19.191 91.6358 19.3891 92.2281 19.3891C92.586 19.3891 92.9419 19.2996 93.2956 19.1206C93.6535 18.9417 93.9497 18.6711 94.184 18.3088C94.4227 17.9466 94.5399 17.4864 94.5356 16.9282ZM106.378 13.5787L104.646 13.8856C104.574 13.664 104.459 13.453 104.301 13.2527C104.148 13.0525 103.939 12.8884 103.675 12.7606C103.41 12.6327 103.08 12.5688 102.684 12.5688C102.143 12.5688 101.691 12.6902 101.329 12.9331C100.966 13.1718 100.785 13.4807 100.785 13.86C100.785 14.1881 100.907 14.4523 101.15 14.6526C101.393 14.8529 101.785 15.0169 102.326 15.1448L103.885 15.5027C104.789 15.7115 105.462 16.0333 105.905 16.4679C106.349 16.9026 106.57 17.4672 106.57 18.1618C106.57 18.7499 106.4 19.274 106.059 19.7343C105.722 20.1902 105.251 20.5482 104.646 20.8081C104.045 21.0681 103.349 21.1981 102.556 21.1981C101.456 21.1981 100.559 20.9637 99.865 20.4949C99.1704 20.0219 98.7442 19.3508 98.5866 18.4814L100.434 18.2002C100.549 18.6817 100.785 19.0461 101.143 19.2932C101.501 19.5361 101.968 19.6576 102.543 19.6576C103.17 19.6576 103.67 19.5276 104.045 19.2677C104.42 19.0035 104.608 18.6817 104.608 18.3025C104.608 17.9956 104.493 17.7378 104.263 17.529C104.037 17.3202 103.689 17.1625 103.221 17.056L101.559 16.6917C100.643 16.4829 99.9651 16.1505 99.5262 15.6945C99.0915 15.2385 98.8742 14.6611 98.8742 13.9623C98.8742 13.3827 99.0361 12.8756 99.36 12.441C99.6839 12.0063 100.131 11.6675 100.702 11.4246C101.273 11.1775 101.927 11.0539 102.665 11.0539C103.726 11.0539 104.561 11.284 105.17 11.7442C105.78 12.2002 106.182 12.8117 106.378 13.5787ZM106.843 9.60933V7.90904H116.975V9.60933H112.89V20.9999H110.922V9.60933H106.843ZM121.868 21.1981C120.901 21.1981 120.067 20.9914 119.369 20.578C118.674 20.1604 118.137 19.5745 117.758 18.8202C117.383 18.0617 117.195 17.1732 117.195 16.1547C117.195 15.149 117.383 14.2627 117.758 13.4956C118.137 12.7286 118.665 12.1299 119.343 11.6995C120.025 11.2691 120.822 11.0539 121.734 11.0539C122.288 11.0539 122.825 11.1455 123.344 11.3287C123.864 11.512 124.331 11.7996 124.744 12.1917C125.158 12.5837 125.484 13.0929 125.722 13.7194C125.961 14.3415 126.08 15.0979 126.08 15.9885V16.6661H118.276V15.2343H124.207C124.207 14.7314 124.105 14.2861 123.901 13.8983C123.696 13.5063 123.408 13.1973 123.038 12.9715C122.671 12.7456 122.241 12.6327 121.746 12.6327C121.21 12.6327 120.741 12.7648 120.34 13.029C119.944 13.289 119.637 13.6299 119.42 14.0517C119.207 14.4694 119.1 14.9232 119.1 15.4133V16.5319C119.1 17.1881 119.215 17.7463 119.445 18.2066C119.68 18.6668 120.006 19.0184 120.423 19.2613C120.841 19.4999 121.329 19.6192 121.887 19.6192C122.249 19.6192 122.58 19.5681 122.878 19.4658C123.176 19.3593 123.434 19.2016 123.651 18.9928C123.869 18.784 124.035 18.5262 124.15 18.2194L125.959 18.5454C125.814 19.078 125.554 19.5446 125.179 19.9452C124.808 20.3415 124.342 20.6505 123.779 20.8721C123.221 21.0894 122.584 21.1981 121.868 21.1981ZM132.336 21.1981C131.386 21.1981 130.568 20.9829 129.882 20.5525C129.2 20.1178 128.676 19.5191 128.309 18.7563C127.943 17.9935 127.76 17.1199 127.76 16.1356C127.76 15.1384 127.947 14.2584 128.322 13.4956C128.697 12.7286 129.226 12.1299 129.907 11.6995C130.589 11.2691 131.393 11.0539 132.317 11.0539C133.063 11.0539 133.728 11.1924 134.312 11.4694C134.895 11.7421 135.366 12.1256 135.724 12.6199C136.086 13.1142 136.302 13.6917 136.37 14.3522H134.51C134.407 13.8919 134.173 13.4956 133.807 13.1633C133.444 12.8309 132.959 12.6647 132.349 12.6647C131.817 12.6647 131.35 12.8053 130.949 13.0865C130.553 13.3635 130.244 13.7598 130.023 14.2755C129.801 14.7868 129.69 15.3919 129.69 16.0908C129.69 16.8067 129.799 17.4246 130.016 17.9445C130.233 18.4644 130.54 18.8671 130.937 19.1526C131.337 19.4381 131.808 19.5809 132.349 19.5809C132.711 19.5809 133.04 19.5148 133.334 19.3827C133.632 19.2463 133.881 19.0525 134.081 18.801C134.286 18.5496 134.429 18.2471 134.51 17.8934H136.37C136.302 18.5283 136.095 19.0951 135.75 19.5937C135.405 20.0922 134.942 20.4843 134.363 20.7698C133.787 21.0553 133.112 21.1981 132.336 21.1981ZM140.325 15.1704V20.9999H138.414V7.90904H140.299V12.7797H140.421C140.651 12.2513 141.002 11.8316 141.475 11.5205C141.949 11.2094 142.566 11.0539 143.329 11.0539C144.002 11.0539 144.591 11.1924 145.093 11.4694C145.6 11.7463 145.993 12.1597 146.27 12.7094C146.551 13.2549 146.691 13.9367 146.691 14.7549V20.9999H144.78V14.985C144.78 14.2648 144.595 13.7066 144.224 13.3103C143.853 12.9097 143.338 12.7094 142.677 12.7094C142.225 12.7094 141.821 12.8053 141.463 12.9971C141.109 13.1888 140.83 13.4701 140.625 13.8408C140.425 14.2073 140.325 14.6505 140.325 15.1704Z" fill="#FCF7F6"/>
</g>
<defs>
<clipPath id="clip0_196_52">
<rect width="148" height="28" fill="white"/>
</clipPath>
</defs>
</svg>
